HIERARCHY
ROOT hip
{
  OFFSET 0 90.174 2.4664
  CHANNELS 6 Xposition Yposition Zposition Zrotation Xrotation Yrotation
  JOINT abdomen
  {
    OFFSET 0 -1.186 -1.5018
    CHANNELS 6 Xposition Yposition Zposition Zrotation Xrotation Yrotation
    JOINT abdomen2
    {
      OFFSET 0 9.964 0.2134
      CHANNELS 6 Xposition Yposition Zposition Zrotation Xrotation Yrotation
      JOINT chest
      {
        OFFSET 0 13.134 -3.2573
        CHANNELS 6 Xposition Yposition Zposition Zrotation Xrotation Yrotation
        JOINT neck
        {
          OFFSET 0 20.686 -1.6905
          CHANNELS 6 Xposition Yposition Zposition Zrotation Xrotation Yrotation
          JOINT head
          {
            OFFSET 0 7.238 -0.1237
            CHANNELS 6 Xposition Yposition Zposition Zrotation Xrotation Yrotation
            End Site
            {
              OFFSET 0 0 0
            }
          }
        }
        JOINT lCollar
        {
          OFFSET 1.7069 20.075 5.0056
          CHANNELS 6 Xposition Yposition Zposition Zrotation Xrotation Yrotation
          JOINT lShldr
          {
            OFFSET 13.6458 -0.047 -4.849
            CHANNELS 6 Xposition Yposition Zposition Zrotation Xrotation Yrotation
            JOINT lForeArm
            {
              OFFSET 28.3255 -0.9759 2.2888
              CHANNELS 6 Xposition Yposition Zposition Zrotation Xrotation Yrotation
              JOINT lHand
              {
                OFFSET 22.1583 -0.53 10.8316
                CHANNELS 6 Xposition Yposition Zposition Zrotation Xrotation Yrotation
                JOINT lThumb1
                {
                  OFFSET 0.786 0.112 2.5817
                  CHANNELS 6 Xposition Yposition Zposition Zrotation Xrotation Yrotation
                  JOINT lThumb2
                  {
                    OFFSET 0.3601 -0.878 4.2331
                    CHANNELS 6 Xposition Yposition Zposition Zrotation Xrotation Yrotation
                    JOINT lThumb2_End
                    {
                      OFFSET 1.8127 -1.216 2.2227
                      CHANNELS 6 Xposition Yposition Zposition Zrotation Xrotation Yrotation
                      End Site
                      {
                        OFFSET 0.0181 -0.0122 0.0222
                      }
                    }
                  }
                }
                JOINT lCarpal1
                {
                  OFFSET 0.9571 1.114 1.7695
                  CHANNELS 6 Xposition Yposition Zposition Zrotation Xrotation Yrotation
                  JOINT lIndex1
                  {
                    OFFSET 4.1246 0.487 4.1451
                    CHANNELS 6 Xposition Yposition Zposition Zrotation Xrotation Yrotation
                    JOINT lIndex2
                    {
                      OFFSET 3.4052 -1.454 2.7682
                      CHANNELS 6 Xposition Yposition Zposition Zrotation Xrotation Yrotation
                      JOINT lIndex2_End
                      {
                        OFFSET 1.4531 -1.795 1.2713
                        CHANNELS 6 Xposition Yposition Zposition Zrotation Xrotation Yrotation
                        End Site
                        {
                          OFFSET 0.0145 -0.0179 0.0127
                        }
                      }
                    }
                  }
                  JOINT lMid1
                  {
                    OFFSET 5.6954 0.21 2.1184
                    CHANNELS 6 Xposition Yposition Zposition Zrotation Xrotation Yrotation
                    JOINT lMid2
                    {
                      OFFSET 3.9766 -1.54 2.3863
                      CHANNELS 6 Xposition Yposition Zposition Zrotation Xrotation Yrotation
                      JOINT lMid2_End
                      {
                        OFFSET 1.4042 -1.926 1.125
                        CHANNELS 6 Xposition Yposition Zposition Zrotation Xrotation Yrotation
                        End Site
                        {
                          OFFSET 0.014 -0.0193 0.0113
                        }
                      }
                    }
                  }
                }
                JOINT lCarpal2
                {
                  OFFSET 2.0956 0.66 -0.3894
                  CHANNELS 6 Xposition Yposition Zposition Zrotation Xrotation Yrotation
                  JOINT lRing1
                  {
                    OFFSET 5.0395 -0.09 2.4971
                    CHANNELS 6 Xposition Yposition Zposition Zrotation Xrotation Yrotation
                    JOINT lRing2
                    {
                      OFFSET 3.7921 -1.552 1.4806
                      CHANNELS 6 Xposition Yposition Zposition Zrotation Xrotation Yrotation
                      JOINT lRing2_End
                      {
                        OFFSET 1.4655 -1.808 0.9609
                        CHANNELS 6 Xposition Yposition Zposition Zrotation Xrotation Yrotation
                        End Site
                        {
                          OFFSET 0.0147 -0.0181 0.0096
                        }
                      }
                    }
                  }
                  JOINT lPinky1
                  {
                    OFFSET 4.9141 -1.269 0.3591
                    CHANNELS 6 Xposition Yposition Zposition Zrotation Xrotation Yrotation
                    JOINT lPinky2
                    {
                      OFFSET 3.1477 -1.685 0.8462
                      CHANNELS 6 Xposition Yposition Zposition Zrotation Xrotation Yrotation
                      JOINT lPinky2_End
                      {
                        OFFSET 0.8055 -1.585 0.7955
                        CHANNELS 6 Xposition Yposition Zposition Zrotation Xrotation Yrotation
                        End Site
                        {
                          OFFSET 0.0081 -0.0158 0.008
                        }
                      }
                    }
                  }
                }
              }
            }
          }
        }
        JOINT rCollar
        {
          OFFSET -1.7069 20.075 5.0056
          CHANNELS 6 Xposition Yposition Zposition Zrotation Xrotation Yrotation
          JOINT rShldr
          {
            OFFSET -13.6458 -0.047 -4.849
            CHANNELS 6 Xposition Yposition Zposition Zrotation Xrotation Yrotation
            JOINT rForeArm
            {
              OFFSET -28.3255 -0.9759 2.2888
              CHANNELS 6 Xposition Yposition Zposition Zrotation Xrotation Yrotation
              JOINT rHand
              {
                OFFSET -22.1583 -0.53 10.8316
                CHANNELS 6 Xposition Yposition Zposition Zrotation Xrotation Yrotation
                JOINT rThumb1
                {
                  OFFSET -0.786 0.112 2.5817
                  CHANNELS 6 Xposition Yposition Zposition Zrotation Xrotation Yrotation
                  JOINT rThumb2
                  {
                    OFFSET -0.3601 -0.878 4.2331
                    CHANNELS 6 Xposition Yposition Zposition Zrotation Xrotation Yrotation
                    JOINT rThumb2_End
                    {
                      OFFSET -1.8127 -1.216 2.2227
                      CHANNELS 6 Xposition Yposition Zposition Zrotation Xrotation Yrotation
                      End Site
                      {
                        OFFSET -0.0181 -0.0122 0.0222
                      }
                    }
                  }
                }
                JOINT rCarpal1
                {
                  OFFSET -0.9571 1.114 1.7695
                  CHANNELS 6 Xposition Yposition Zposition Zrotation Xrotation Yrotation
                  JOINT rIndex1
                  {
                    OFFSET -4.1246 0.487 4.1451
                    CHANNELS 6 Xposition Yposition Zposition Zrotation Xrotation Yrotation
                    JOINT rIndex2
                    {
                      OFFSET -3.4052 -1.454 2.7682
                      CHANNELS 6 Xposition Yposition Zposition Zrotation Xrotation Yrotation
                      JOINT rIndex2_End
                      {
                        OFFSET -1.4531 -1.795 1.2713
                        CHANNELS 6 Xposition Yposition Zposition Zrotation Xrotation Yrotation
                        End Site
                        {
                          OFFSET -0.0145 -0.018 0.0127
                        }
                      }
                    }
                  }
                  JOINT rMid1
                  {
                    OFFSET -5.6954 0.21 2.1184
                    CHANNELS 6 Xposition Yposition Zposition Zrotation Xrotation Yrotation
                    JOINT rMid2
                    {
                      OFFSET -3.9766 -1.54 2.3863
                      CHANNELS 6 Xposition Yposition Zposition Zrotation Xrotation Yrotation
                      JOINT rMid2_End
                      {
                        OFFSET -1.4042 -1.926 1.125
                        CHANNELS 6 Xposition Yposition Zposition Zrotation Xrotation Yrotation
                        End Site
                        {
                          OFFSET -0.014 -0.0193 0.0113
                        }
                      }
                    }
                  }
                }
                JOINT rCarpal2
                {
                  OFFSET -2.0956 0.66 -0.3894
                  CHANNELS 6 Xposition Yposition Zposition Zrotation Xrotation Yrotation
                  JOINT rRing1
                  {
                    OFFSET -5.0395 -0.09 2.4971
                    CHANNELS 6 Xposition Yposition Zposition Zrotation Xrotation Yrotation
                    JOINT rRing2
                    {
                      OFFSET -3.7921 -1.552 1.4806
                      CHANNELS 6 Xposition Yposition Zposition Zrotation Xrotation Yrotation
                      JOINT rRing2_End
                      {
                        OFFSET -1.4655 -1.808 0.9609
                        CHANNELS 6 Xposition Yposition Zposition Zrotation Xrotation Yrotation
                        End Site
                        {
                          OFFSET -0.0147 -0.0181 0.0096
                        }
                      }
                    }
                  }
                  JOINT rPinky1
                  {
                    OFFSET -4.9141 -1.269 0.3592
                    CHANNELS 6 Xposition Yposition Zposition Zrotation Xrotation Yrotation
                    JOINT rPinky2
                    {
                      OFFSET -3.1477 -1.685 0.8462
                      CHANNELS 6 Xposition Yposition Zposition Zrotation Xrotation Yrotation
                      JOINT rPinky2_End
                      {
                        OFFSET -0.8055 -1.585 0.7955
                        CHANNELS 6 Xposition Yposition Zposition Zrotation Xrotation Yrotation
                        End Site
                        {
                          OFFSET -0.0081 -0.0158 0.008
                        }
                      }
                    }
                  }
                }
              }
            }
          }
        }
      }
    }
  }
  JOINT lThigh
  {
    OFFSET 8.367 -8.2066 0.5982
    CHANNELS 6 Xposition Yposition Zposition Zrotation Xrotation Yrotation
    JOINT lShin
    {
      OFFSET 2.1923 -43.463 -0.4932
      CHANNELS 6 Xposition Yposition Zposition Zrotation Xrotation Yrotation
      JOINT lFoot
      {
        OFFSET 0.7333 -45.8593 -2.6451
        CHANNELS 6 Xposition Yposition Zposition Zrotation Xrotation Yrotation
        End Site
        {
          OFFSET 2.6618 -4.2699 12.3931
        }
      }
    }
  }
  JOINT rThigh
  {
    OFFSET -8.367 -8.2066 0.5982
    CHANNELS 6 Xposition Yposition Zposition Zrotation Xrotation Yrotation
    JOINT rShin
    {
      OFFSET -2.1923 -43.463 -0.4931
      CHANNELS 6 Xposition Yposition Zposition Zrotation Xrotation Yrotation
      JOINT rFoot
      {
        OFFSET -0.7333 -45.8593 -2.6451
        CHANNELS 6 Xposition Yposition Zposition Zrotation Xrotation Yrotation
        End Site
        {
          OFFSET -2.6618 -4.2699 12.3931
        }
      }
    }
  }
}
MOTION
Frames:	4
Frame Time:	0.0333333
0 90.174 2.4664 0 0 -0 0 -1.186 -1.5018 0 0 -0 0 9.964 0.2134 0 0 -0 0 13.134 -3.2573 0 0 -0 0 20.686 -1.6905 0 0 -0 0 7.238 -0.1237 0 0 -0 1.7069 20.075 5.0056 0 0 -0 13.6458 -0.047 -4.849 1.66051 0.0835086 5.75766 28.3255 -0.9759 2.2888 -0.0175111 0.895433 15.7816 22.1583 -0.53 10.8316 7.95139e-016 -1.98785e-016 -0 0.786 0.112 2.5817 5.46658e-016 -3.97569e-016 -0 0.3601 -0.878 4.2331 5.96354e-016 0 -0 1.8127 -1.216 2.2227 3.97569e-016 1.98785e-016 9.54166e-015 0.9571 1.114 1.7695 1.49089e-016 -3.97569e-016 -0 4.1246 0.487 4.1451 6.4605e-016 0 3.18055e-015 3.4052 -1.454 2.7682 5.96354e-016 0 3.18055e-015 1.4531 -1.795 1.2713 8.94531e-016 -1.98785e-016 6.36111e-015 5.6954 0.21 2.1184 6.4605e-016 0 3.18055e-015 3.9766 -1.54 2.3863 5.96354e-016 0 3.18055e-015 1.4042 -1.926 1.125 8.94531e-016 -1.98785e-016 6.36111e-015 2.0956 0.66 -0.3894 1.49089e-016 -3.97569e-016 -0 5.0395 -0.09 2.4971 6.4605e-016 0 3.18055e-015 3.7921 -1.552 1.4806 5.96354e-016 0 3.18055e-015 1.4655 -1.808 0.9609 8.94531e-016 -1.98785e-016 6.36111e-015 4.9141 -1.269 0.3591 6.4605e-016 0 3.18055e-015 3.1477 -1.685 0.8462 5.96354e-016 0 3.18055e-015 0.8055 -1.585 0.7955 8.94531e-016 -1.98785e-016 6.36111e-015 -1.7069 20.075 5.0056 0 0 -0 -13.6458 -0.047 -4.849 -1.4496 0.0636048 -5.0245 -28.3255 -0.9759 2.2888 -1.74811 1.20616 -16.8394 -22.1583 -0.53 10.8316 -1.19271e-015 1.98785e-016 -3.18055e-015 -0.786 0.112 2.5817 -3.97569e-016 1.98785e-016 -3.18055e-015 -0.3601 -0.878 4.2331 -2.98177e-016 1.98785e-016 -3.18055e-015 -1.8127 -1.216 2.2227 -2.98177e-016 3.97569e-016 -0 -0.9571 1.114 1.7695 4.96962e-016 0 -6.36111e-015 -4.1246 0.487 4.1451 -9.93923e-017 3.97569e-016 -0 -3.4052 -1.454 2.7682 -8.94531e-016 5.96354e-016 -0 -1.4531 -1.795 1.2713 -3.97569e-016 3.97569e-016 -0 -5.6954 0.21 2.1184 -9.93923e-017 3.97569e-016 -0 -3.9766 -1.54 2.3863 -8.94531e-016 5.96354e-016 -0 -1.4042 -1.926 1.125 -3.97569e-016 3.97569e-016 -0 -2.0956 0.66 -0.3894 4.96962e-016 0 -6.36111e-015 -5.0395 -0.09 2.4971 -9.93923e-017 3.97569e-016 -0 -3.7921 -1.552 1.4806 -8.94531e-016 5.96354e-016 -0 -1.4655 -1.808 0.9609 -3.97569e-016 3.97569e-016 -0 -4.9141 -1.269 0.3592 -9.93923e-017 3.97569e-016 -0 -3.1477 -1.685 0.8462 -8.94531e-016 5.96354e-016 -0 -0.8055 -1.585 0.7955 -3.97569e-016 3.97569e-016 -0 8.367 -8.2066 0.5982 -4.66115 -1.03232 0.120763 2.1923 -43.463 -0.4932 0.00990601 1.55097 0.177175 0.7333 -45.8593 -2.6451 4.65196 -0.54114 -0.255042 -8.367 -8.2066 0.5982 4.66115 -1.03222 -0.120763 -2.1923 -43.463 -0.4931 -0.00990459 1.5509 -0.177176 -0.7333 -45.8593 -2.6451 -4.65196 -0.541171 0.255041 
1.64477 10.8912 -7.38862 0.645985 -48.0242 -1.50211 -2.22045e-016 -1.186 -1.5018 0.547104 6.40451 -0.731049 0 9.964 0.2134 1.18823 12.8012 -1.53861 -4.44089e-016 13.134 -3.2573 1.18823 12.8012 -1.53861 8.88178e-016 20.686 -1.6905 1.28251 38.2498 0.897103 0 7.238 -0.1237 -11.6411 12.6428 6.12098 1.7069 20.075 5.0056 11.0025 6.9905 -4.72227e-005 13.6458 -0.047 -4.849 -109.776 30.8002 40.1657 28.3255 -0.9759 2.2888 -5.47429 -51.8657 11.0225 22.1583 -0.53 10.8316 61.5144 -19.13 -5.67135 0.786 0.112 2.5817 8.27767e-007 -1.89223e-007 7.6485e-008 0.3601 -0.878 4.2331 -1.89223e-007 -8.27767e-007 -4.55672e-008 1.8127 -1.216 2.2227 7.91513e-007 -9.25856e-007 -1.62462e-006 0.9571 1.114 1.7695 1.59028e-015 0 -3.18055e-015 4.1246 0.487 4.1451 8.27767e-007 -1.89223e-007 7.6485e-008 3.4052 -1.454 2.7682 -1.89223e-007 -8.27767e-007 -4.55672e-008 1.4531 -1.795 1.2713 7.91513e-007 -9.25856e-007 -1.62462e-006 5.6954 0.21 2.1184 8.27767e-007 -1.89223e-007 7.6485e-008 3.9766 -1.54 2.3863 -1.89223e-007 -8.27767e-007 -4.55672e-008 1.4042 -1.926 1.125 7.91513e-007 -9.25856e-007 -1.62462e-006 2.0956 0.66 -0.3894 1.59028e-015 0 -3.18055e-015 5.0395 -0.09 2.4971 8.27767e-007 -1.89223e-007 7.6485e-008 3.7921 -1.552 1.4806 -1.89223e-007 -8.27767e-007 -4.55672e-008 1.4655 -1.808 0.9609 7.91513e-007 -9.25856e-007 -1.62462e-006 4.9141 -1.269 0.3591 8.27767e-007 -1.89223e-007 7.6485e-008 3.1477 -1.685 0.8462 -1.89223e-007 -8.27767e-007 -4.55672e-008 0.8055 -1.585 0.7955 7.91513e-007 -9.25856e-007 -1.62462e-006 -1.7069 20.075 5.0056 -11.0058 6.99084 -0.00323528 -13.6458 -0.047 -4.849 109.959 30.6634 -39.5293 -28.3255 -0.9759 2.2888 1.76665 -51.7093 -14.5769 -22.1583 -0.53 10.8316 -61.4854 -19.6674 5.08283 -0.786 0.112 2.5817 1.6217e-006 4.39106e-007 1.90265e-007 -0.3601 -0.878 4.2331 -3.2434e-006 -8.78211e-007 -3.80531e-007 -1.8127 -1.216 2.2227 2.06081e-006 -1.1826e-006 4.28569e-007 -0.9571 1.114 1.7695 3.18055e-015 3.97569e-015 -3.18055e-015 -4.1246 0.487 4.1451 1.6217e-006 4.39106e-007 1.90265e-007 -3.4052 -1.454 2.7682 -3.2434e-006 -8.78211e-007 -3.80531e-007 -1.4531 -1.795 1.2713 2.06081e-006 -1.1826e-006 4.28569e-007 -5.6954 0.21 2.1184 1.6217e-006 4.39106e-007 1.90265e-007 -3.9766 -1.54 2.3863 -3.2434e-006 -8.78211e-007 -3.80531e-007 -1.4042 -1.926 1.125 2.06081e-006 -1.1826e-006 4.28569e-007 -2.0956 0.66 -0.3894 3.18055e-015 3.97569e-015 -3.18055e-015 -5.0395 -0.09 2.4971 1.6217e-006 4.39106e-007 1.90265e-007 -3.7921 -1.552 1.4806 -3.2434e-006 -8.78211e-007 -3.80531e-007 -1.4655 -1.808 0.9609 2.06081e-006 -1.1826e-006 4.28569e-007 -4.9141 -1.269 0.3592 1.6217e-006 4.39106e-007 1.90265e-007 -3.1477 -1.685 0.8462 -3.2434e-006 -8.78211e-007 -3.80531e-007 -0.8055 -1.585 0.7955 2.06081e-006 -1.1826e-006 4.28569e-007 8.367 -8.2066 0.5982 37.0134 -33.4923 31.6466 2.1923 -43.463 -0.4932 9.9078 12.1875 29.7432 0.7333 -45.8593 -2.6451 -20.8212 32.8279 -2.41454 -8.367 -8.2066 0.5982 -68.6268 -75.015 -50.1397 -2.1923 -43.463 -0.4931 -143.118 76.825 136.646 -0.7333 -45.8593 -2.6451 21.9401 29.7151 -5.06305 
1.65057 10.8887 -7.39017 0.645985 -48.0242 -1.50211 2.22045e-016 -1.186 -1.5018 0.547104 6.40451 -0.731049 2.22045e-016 9.964 0.2134 1.18823 12.8012 -1.53861 0 13.134 -3.2573 1.18823 12.8012 -1.53861 8.88178e-016 20.686 -1.6905 1.22997 38.0113 1.18765 8.88178e-016 7.238 -0.1237 -11.6229 12.3833 6.05814 1.7069 20.075 5.0056 11.0025 6.9905 -4.72227e-005 13.6458 -0.047 -4.849 -109.776 30.8002 40.1657 28.3255 -0.9759 2.2888 -5.47429 -51.8657 11.0225 22.1583 -0.53 10.8316 61.5144 -19.13 -5.67135 0.786 0.112 2.5817 8.27767e-007 -1.89223e-007 7.6485e-008 0.3601 -0.878 4.2331 -1.89223e-007 -8.27767e-007 -4.55672e-008 1.8127 -1.216 2.2227 7.91513e-007 -9.25856e-007 -1.62462e-006 0.9571 1.114 1.7695 1.59028e-015 0 -3.18055e-015 4.1246 0.487 4.1451 8.27767e-007 -1.89223e-007 7.6485e-008 3.4052 -1.454 2.7682 -1.89223e-007 -8.27767e-007 -4.55672e-008 1.4531 -1.795 1.2713 7.91513e-007 -9.25856e-007 -1.62462e-006 5.6954 0.21 2.1184 8.27767e-007 -1.89223e-007 7.6485e-008 3.9766 -1.54 2.3863 -1.89223e-007 -8.27767e-007 -4.55672e-008 1.4042 -1.926 1.125 7.91513e-007 -9.25856e-007 -1.62462e-006 2.0956 0.66 -0.3894 1.59028e-015 0 -3.18055e-015 5.0395 -0.09 2.4971 8.27767e-007 -1.89223e-007 7.6485e-008 3.7921 -1.552 1.4806 -1.89223e-007 -8.27767e-007 -4.55672e-008 1.4655 -1.808 0.9609 7.91513e-007 -9.25856e-007 -1.62462e-006 4.9141 -1.269 0.3591 8.27767e-007 -1.89223e-007 7.6485e-008 3.1477 -1.685 0.8462 -1.89223e-007 -8.27767e-007 -4.55672e-008 0.8055 -1.585 0.7955 7.91513e-007 -9.25856e-007 -1.62462e-006 -1.7069 20.075 5.0056 -11.0058 6.99084 -0.00323528 -13.6458 -0.047 -4.849 109.959 30.6634 -39.5293 -28.3255 -0.9759 2.2888 1.76664 -51.7093 -14.5769 -22.1583 -0.53 10.8316 -61.4854 -19.6674 5.08284 -0.786 0.112 2.5817 -2.84152e-006 -2.08538e-006 2.87977e-006 -0.3601 -0.878 4.2331 -3.18055e-015 -1.59028e-015 -6.36111e-015 -1.8127 -1.216 2.2227 -1.74545e-006 -1.18788e-006 1.5029e-007 -0.9571 1.114 1.7695 -3.18055e-015 -3.18055e-015 -6.36111e-015 -4.1246 0.487 4.1451 -2.84152e-006 -2.08538e-006 2.87977e-006 -3.4052 -1.454 2.7682 1.59028e-015 -1.59028e-015 3.18055e-015 -1.4531 -1.795 1.2713 -1.74545e-006 -1.18788e-006 1.5029e-007 -5.6954 0.21 2.1184 -2.84152e-006 -2.08538e-006 2.87977e-006 -3.9766 -1.54 2.3863 1.59028e-015 -1.59028e-015 3.18055e-015 -1.4042 -1.926 1.125 -1.74545e-006 -1.18788e-006 1.5029e-007 -2.0956 0.66 -0.3894 -3.18055e-015 -3.18055e-015 -6.36111e-015 -5.0395 -0.09 2.4971 -2.84152e-006 -2.08538e-006 2.87977e-006 -3.7921 -1.552 1.4806 1.59028e-015 -1.59028e-015 3.18055e-015 -1.4655 -1.808 0.9609 -1.74545e-006 -1.18788e-006 1.5029e-007 -4.9141 -1.269 0.3592 -2.84152e-006 -2.08538e-006 2.87977e-006 -3.1477 -1.685 0.8462 1.59028e-015 -1.59028e-015 3.18055e-015 -0.8055 -1.585 0.7955 -1.74545e-006 -1.18788e-006 1.5029e-007 8.367 -8.2066 0.5982 37.0154 -33.5027 31.6472 2.1923 -43.463 -0.4932 9.90861 12.2045 29.7413 0.7333 -45.8593 -2.6451 -20.8209 32.8198 -2.4164 -8.367 -8.2066 0.5982 -71.0644 -74.5341 -52.8405 -2.1923 -43.463 -0.4931 -143.087 76.834 136.619 -0.7333 -45.8593 -2.6451 21.9184 29.6556 -5.04023 
1.6564 10.8863 -7.3917 0.645984 -48.0242 -1.50211 0 -1.186 -1.5018 0.547104 6.40451 -0.731049 -4.44089e-016 9.964 0.2134 1.18823 12.8012 -1.53861 0 13.134 -3.2573 1.18823 12.8012 -1.53861 0 20.686 -1.6905 1.17906 37.7711 1.4772 0 7.238 -0.1237 -11.6051 12.1238 5.99542 1.7069 20.075 5.0056 11.0025 6.9905 -4.52162e-005 13.6458 -0.047 -4.849 -109.776 30.8002 40.1657 28.3255 -0.9759 2.2888 -5.4743 -51.8657 11.0225 22.1583 -0.53 10.8316 61.5144 -19.13 -5.67135 0.786 0.112 2.5817 -1.01699e-006 -6.38543e-007 -1.22052e-007 0.3601 -0.878 4.2331 1.65553e-006 -3.78446e-007 1.5297e-007 1.8127 -1.216 2.2227 -8.27767e-007 1.89223e-007 -7.6485e-008 0.9571 1.114 1.7695 7.95139e-016 3.18055e-015 3.18055e-015 4.1246 0.487 4.1451 -1.01699e-006 -6.38544e-007 -1.22052e-007 3.4052 -1.454 2.7682 1.65553e-006 -3.78446e-007 1.5297e-007 1.4531 -1.795 1.2713 -8.27767e-007 1.89223e-007 -7.6485e-008 5.6954 0.21 2.1184 -1.01699e-006 -6.38544e-007 -1.22052e-007 3.9766 -1.54 2.3863 1.65553e-006 -3.78446e-007 1.5297e-007 1.4042 -1.926 1.125 -8.27767e-007 1.89223e-007 -7.6485e-008 2.0956 0.66 -0.3894 7.95139e-016 3.18055e-015 3.18055e-015 5.0395 -0.09 2.4971 -1.01699e-006 -6.38544e-007 -1.22052e-007 3.7921 -1.552 1.4806 1.65553e-006 -3.78446e-007 1.5297e-007 1.4655 -1.808 0.9609 -8.27767e-007 1.89223e-007 -7.6485e-008 4.9141 -1.269 0.3591 -1.01699e-006 -6.38544e-007 -1.22052e-007 3.1477 -1.685 0.8462 1.65553e-006 -3.78446e-007 1.5297e-007 0.8055 -1.585 0.7955 -8.27767e-007 1.89223e-007 -7.6485e-008 -1.7069 20.075 5.0056 -11.0058 6.99084 -0.00323554 -13.6458 -0.047 -4.849 109.959 30.6634 -39.5293 -28.3255 -0.9759 2.2888 1.76664 -51.7093 -14.5769 -22.1583 -0.53 10.8316 -61.4854 -19.6674 5.08283 -0.786 0.112 2.5817 2.19553e-007 -8.10851e-007 1.19152e-007 -0.3601 -0.878 4.2331 -1.40215e-006 -1.24996e-006 -7.11136e-008 -1.8127 -1.216 2.2227 -1.1826e-006 -2.06081e-006 4.8038e-008 -0.9571 1.114 1.7695 7.95139e-016 -2.38542e-015 -3.18055e-015 -4.1246 0.487 4.1451 2.19553e-007 -8.10851e-007 1.19152e-007 -3.4052 -1.454 2.7682 -1.40215e-006 -1.24996e-006 -7.11136e-008 -1.4531 -1.795 1.2713 -1.1826e-006 -2.06081e-006 4.8038e-008 -5.6954 0.21 2.1184 2.19553e-007 -8.10851e-007 1.19152e-007 -3.9766 -1.54 2.3863 -1.40215e-006 -1.24996e-006 -7.11136e-008 -1.4042 -1.926 1.125 -1.1826e-006 -2.06081e-006 4.8038e-008 -2.0956 0.66 -0.3894 7.95139e-016 -2.38542e-015 -3.18055e-015 -5.0395 -0.09 2.4971 2.19553e-007 -8.10851e-007 1.19152e-007 -3.7921 -1.552 1.4806 -1.40215e-006 -1.24996e-006 -7.11136e-008 -1.4655 -1.808 0.9609 -1.1826e-006 -2.06081e-006 4.8038e-008 -4.9141 -1.269 0.3592 2.19553e-007 -8.10851e-007 1.19152e-007 -3.1477 -1.685 0.8462 -1.40215e-006 -1.24996e-006 -7.11136e-008 -0.8055 -1.585 0.7955 -1.1826e-006 -2.06081e-006 4.8038e-008 8.367 -8.2066 0.5982 37.0174 -33.5132 31.6478 2.1923 -43.463 -0.4932 9.90945 12.2217 29.7393 0.7333 -45.8593 -2.6451 -20.8206 32.8116 -2.41824 -8.367 -8.2066 0.5982 -73.3518 -74.0227 -55.3918 -2.1923 -43.463 -0.4931 -143.058 76.8425 136.594 -0.7333 -45.8593 -2.6451 21.8974 29.5957 -5.01702 
